<svg width="303" height="303" viewBox="0 0 303 303" fill="none" xmlns="http://www.w3.org/2000/svg">
<path d="M288.926 0.386719H14.1484C6.61328 0.386719 0.484375 6.51563 0.484375 14.0508V288.828C0.484375 296.359 6.61328 302.488 14.1484 302.488H288.926C296.461 302.488 302.586 296.359 302.586 288.828V14.0508C302.586 6.51563 296.461 0.386719 288.926 0.386719ZM290.168 288.828C290.168 289.512 289.609 290.07 288.926 290.07H14.1484C13.4609 290.07 12.9062 289.512 12.9062 288.828V275.02H290.168V288.828ZM290.168 262.598H12.9062V247.043H290.168V262.598ZM176.098 126.742L210.535 134.645L286.203 234.625H173.09L112.969 161.004L136.441 134.773L176.098 126.742ZM150.289 119.297L176.637 89.8555L198.863 119.223L176.262 114.035L150.289 119.297ZM236.633 148.543L177.438 70.332L105.016 151.262L88.1328 130.594L64.0195 159.172C62.0703 151.832 61.0859 144.254 61.0859 136.535C61.0859 87.9102 100.645 48.3516 149.27 48.3516C197.895 48.3516 237.453 87.9102 237.453 136.535C237.453 140.566 237.172 144.578 236.633 148.543ZM87.9766 150.039L114.16 182.098L87.3789 176.996L60.9922 182.02L87.9766 150.039ZM87.3789 189.637L126.387 197.07L157.055 234.625H16.6016L48.2852 197.078L87.3789 189.637ZM290.168 219.277L246.664 161.801C248.789 153.582 249.871 145.098 249.871 136.535C249.871 81.0625 204.742 35.9336 149.27 35.9336C93.7969 35.9336 48.668 81.0625 48.668 136.535C48.668 148.191 50.6406 159.574 54.5273 170.422L12.9062 219.746V14.0508C12.9062 13.3633 13.4609 12.8086 14.1484 12.8086H288.926C289.609 12.8086 290.168 13.3633 290.168 14.0508V219.277Z" fill="#2E3C48"/>
</svg>
