<svg xmlns="http://www.w3.org/2000/svg"  viewBox="0 0 64 64" width="512px" height="512px"><path fill="#faefde" d="M59 50L41.17 57 21 49 3 55 3 13 20.97 7 41.83 15 59 8 59 50z"/><path fill="#fff7f0" d="M40.83 15L21 7.01 21 49 41.17 57 40.83 15z"/><path fill="#efd8be" d="M40.83 15L41.17 57 59 50 59 8 40.83 15z"/><path fill="#c5e4fa" d="M41.83 20L20.97 12 7 16.66 7 48.67 21 44 41.17 52 55 46.57 55 14.63 41.83 20z"/><path fill="#e3f2ff" d="M40.83 20L21 12.01 21 44 41.17 52 40.83 20z"/><path fill="#c5e4fa" d="M55 14.54L40.83 20 41.17 52 55 46.57 55 14.54z"/><path fill="#ed7899" d="M41 5A8 8 0 1 0 41 21A8 8 0 1 0 41 5Z"/><path fill="#8d6c9f" d="M59.13,7.81a2,2,0,0,0-1.85-.21l-7.62,3a9,9,0,0,0-17.29-.09L22.05,6.34A3,3,0,0,0,20,6.28L4.05,11.6A3,3,0,0,0,2,14.44V53.61a2,2,0,0,0,2.63,1.9l16-5.33a1,1,0,0,1,.69,0L39.9,57.64a3,3,0,0,0,2.2,0l16-6.22A3,3,0,0,0,60,48.63V9.46A2,2,0,0,0,59.13,7.81ZM40,21.94V39a1,1,0,0,0,2,0V21.94a9,9,0,0,0,6.31-3.71L54,16h0V45.87L41,50.92,21.71,43.21a2,2,0,0,0-.74-.14,2,2,0,0,0-.63.1L8,47.28V17.39l13-4.32,12.64,5.06A9,9,0,0,0,40,21.94ZM41,6a7,7,0,1,1-7,7A7,7,0,0,1,41,6ZM58,48.63a1,1,0,0,1-.64.93l-16,6.22a1,1,0,0,1-.73,0L22.05,48.34A3,3,0,0,0,20,48.28L4,53.61V14.44a1,1,0,0,1,.68-.95L20.62,8.18a1,1,0,0,1,.69,0L32,12.49c0,.17,0,.34,0,.51a9,9,0,0,0,.35,2.46L21.71,11.21a2,2,0,0,0-1.37,0l-13,4.32A2,2,0,0,0,6,17.39V47.28a2,2,0,0,0,2.63,1.9L21,45.06l19.29,7.72a2,2,0,0,0,1.47,0l13-5.05A2,2,0,0,0,56,45.87V16a2,2,0,0,0-2.72-1.86l-3.66,1.42A9,9,0,0,0,50,13c0-.14,0-.28,0-.42l8-3.12Z"/><path fill="#8d6c9f" d="M41 10a3 3 0 0 1 1.92.7 1 1 0 1 0 1.29-1.53A5 5 0 0 0 41 8a1 1 0 0 0 0 2zM16 32a1 1 0 0 0-1 1v2a1 1 0 0 0 2 0V33A1 1 0 0 0 16 32zM20 33v2a1 1 0 0 0 2 0V33a1 1 0 0 0-2 0zM26 36a1 1 0 0 0 1-1V33a1 1 0 0 0-2 0v2A1 1 0 0 0 26 36zM31 36a1 1 0 0 0 1-1V33a1 1 0 0 0-2 0v2A1 1 0 0 0 31 36zM36 36a1 1 0 0 0 1-1V33a1 1 0 0 0-2 0v2A1 1 0 0 0 36 36zM46 36a1 1 0 0 0 1-1V33a1 1 0 0 0-2 0v2A1 1 0 0 0 46 36zM51 36a1 1 0 0 0 1-1V33a1 1 0 0 0-2 0v2A1 1 0 0 0 51 36zM11 32a1 1 0 0 0-1 1v2a1 1 0 0 0 2 0V33A1 1 0 0 0 11 32z"/></svg>